<svg id="Capa_1" enable-background="new 0 0 512.001 512.001" height="512" viewBox="0 0 512.001 512.001" width="512" xmlns="http://www.w3.org/2000/svg"><g><g><path d="m337.07 452.89c-7.78 2.82-16.39-1.2-19.22-8.99l-11.95-33.01h-117.92l-33.05 91.22c-2.82 7.79-11.42 11.81-19.21 8.99s-11.82-11.42-9-19.21l64.67-178.5c2.83-7.79 11.43-11.81 19.22-8.99s11.81 11.42 8.99 19.21l-20.75 57.28h96.18l-20.76-57.28c-2.82-7.79 1.21-16.39 9-19.21 7.79-2.83 16.39 1.2 19.21 8.99l43.58 120.29c2.82 7.79-1.2 16.39-8.99 19.21z" fill="#766d78"/></g><path d="m337.07 452.89c-7.78 2.82-16.39-1.2-19.22-8.99l-11.95-33.01h-58.96v-30h48.09l-20.76-57.28c-2.82-7.79 1.21-16.39 9-19.21 7.79-2.83 16.39 1.2 19.21 8.99l43.58 120.29c2.82 7.79-1.2 16.39-8.99 19.21z" fill="#554e56"/><g><circle cx="342.17" cy="467" fill="#403b41" r="45"/></g><g><path d="m445.131 261.87c-8.284 0-15-6.716-15-15v-25.97h-35.223c-8.284 0-15-6.716-15-15s6.716-15 15-15h50.223c8.284 0 15 6.716 15 15v40.97c0 8.285-6.716 15-15 15z" fill="#554e56"/></g><g><path d="m413.58 152.4v20.19c0 91.89-74.76 166.64-166.64 166.64-91.89 0-166.64-74.75-166.64-166.64v-20.19z" fill="#ff4a4a"/></g><path d="m413.58 152.4v20.19c0 91.89-74.76 166.64-166.64 166.64v-186.83z" fill="#c73c50"/><g><path d="m442.01 145.9c0 8.29-6.72 15-15 15h-360.14c-8.28 0-15-6.71-15-15 0-8.28 6.72-15 15-15h360.14c8.28 0 15 6.72 15 15z" fill="#766d78"/></g><g><path d="m287.717 105.5c-3.841 0-7.681-1.466-10.61-4.396l-.78-.78c-7.741-7.756-12-18.047-12-28.983 0-10.943 4.259-21.237 11.994-28.986 2.086-2.086 3.229-4.847 3.229-7.783 0-2.938-1.143-5.697-3.219-7.773l-1.192-1.192c-5.856-5.859-5.854-15.356.004-21.213 5.859-5.857 15.356-5.855 21.213.004l1.19 1.19c7.74 7.739 12.003 18.034 12.003 28.984 0 10.949-4.264 21.244-12.005 28.986-2.071 2.075-3.217 4.843-3.217 7.783 0 2.935 1.146 5.698 3.227 7.783l.773.773c5.856 5.86 5.853 15.357-.006 21.214-2.93 2.925-6.767 4.389-10.604 4.389z" fill="#cfcfde"/></g><g><path d="m207.717 105.5c-3.841 0-7.681-1.466-10.61-4.396l-.78-.78c-7.741-7.756-12-18.047-12-28.983 0-10.943 4.259-21.237 11.994-28.986 2.086-2.086 3.229-4.847 3.229-7.783 0-2.938-1.143-5.697-3.219-7.773l-1.192-1.192c-5.856-5.859-5.854-15.356.004-21.213 5.86-5.857 15.356-5.855 21.213.004l1.19 1.19c7.74 7.739 12.003 18.034 12.003 28.984 0 10.949-4.264 21.244-12.005 28.986-2.071 2.075-3.217 4.843-3.217 7.783 0 2.935 1.146 5.698 3.227 7.783l.773.773c5.856 5.86 5.853 15.357-.006 21.214-2.93 2.925-6.767 4.389-10.604 4.389z" fill="#e5eaee"/></g><path d="m442.01 145.9c0 8.29-6.72 15-15 15h-180.07v-30h180.07c8.28 0 15 6.72 15 15z" fill="#554e56"/></g></svg>