<svg id="Capa_1" enable-background="new 0 0 512 512" height="512" viewBox="0 0 512 512" width="512" xmlns="http://www.w3.org/2000/svg"><g><g><path d="m283.538 209.68v57.91c0 8.28-6.7 14.99-14.99 15h-.01c-8.28 0-15-6.72-15-15v-57.91c0-5.34-4.34-9.68-9.67-9.68h-146.46c-21.4 0-38.81-17.41-38.81-38.82v-67.36c0-21.41 17.41-38.82 38.81-38.82h36.19c8.28 0 15 6.72 15 15s-6.72 15-15 15h-36.19c-4.86 0-8.81 3.96-8.81 8.82v67.36c0 4.86 3.95 8.82 8.81 8.82h146.46c9.32 0 17.91 3.23 24.68 8.64 9.13 7.27 14.99 18.48 14.99 31.04z" fill="#766d78"/></g><path d="m283.538 209.68v57.91c0 8.28-6.7 14.99-14.99 15v-103.95c9.13 7.27 14.99 18.48 14.99 31.04z" fill="#554e56"/><g><path d="m438.402 85h-34.913c-8.284 0-15-6.716-15-15s6.716-15 15-15h34.913c8.284 0 15 6.716 15 15s-6.715 15-15 15z" fill="#554e56"/></g><g><path d="m418.488 28.6v82.8c0 15.77-12.83 28.6-28.6 28.6h-242.69c-15.77 0-28.6-12.83-28.6-28.6v-82.8c0-15.77 12.83-28.6 28.6-28.6h242.69c15.77 0 28.6 12.83 28.6 28.6z" fill="#f4f4f7"/></g><g><path d="m426.408 247.52c-1.08 26.22-22.02 39.94-42.16 39.94-20.533 0-42.21-14.271-42.21-42.3 0-33.01 27.62-66.07 30.84-69.82 5.983-6.949 16.767-6.937 22.74 0 3.3 3.84 32.17 38.41 30.79 72.18z" fill="#e5eaee"/></g><path d="m418.488 28.6v82.8c0 15.77-12.83 28.6-28.6 28.6h-121.34v-140h121.34c15.77 0 28.6 12.83 28.6 28.6z" fill="#e5eaee"/><g><path d="m280.743 282.59-12.195-30h-36.63c-8.03 0-14.63 6.32-14.98 14.34l-7.97 182.84c-.72 16.41 5.14 31.97 16.5 43.84 11.36 11.86 26.65 18.39 43.07 18.39h.01l12.195-43.766z" fill="#e58944"/></g><path d="m328.118 449.77c.72 16.4-5.14 31.97-16.5 43.83-11.35 11.87-26.64 18.4-43.07 18.4v-259.41h36.62c8.03 0 14.63 6.32 14.98 14.34z" fill="#ca671b"/></g></svg>