<svg id="Capa_1" enable-background="new 0 0 512 512" height="512" viewBox="0 0 512 512" width="512" xmlns="http://www.w3.org/2000/svg"><g><g><path d="m434.65 452h-357.3c-10.3 0-17.582-10.187-14.15-19.97l27.04-77.03 51.42-40-23.33-40 31.6-90 50.57-40-22.49-40 23.24-66.19c8.14-23.21 30.15-38.81 54.75-38.81 25.03 0 46.72 15.89 54.76 38.82l23.23 66.18-31.6 40 59.69 40 31.59 90-31.59 40 59.68 40 27.04 77.03c3.436 9.796-3.867 19.97-14.15 19.97z" fill="#fff161"/></g><path d="m434.65 452h-178.65v-452c25.03 0 46.72 15.89 54.76 38.82l23.23 66.18-31.6 40 59.69 40 31.59 90-31.59 40 59.68 40 27.04 77.03c3.436 9.796-3.867 19.97-14.15 19.97z" fill="#fc0"/><g><path d="m482 469.35v27.65c0 8.28-6.72 15-15 15h-422c-8.28 0-15-6.72-15-15v-27.65c0-26.11 21.24-47.35 47.35-47.35h357.3c26.11 0 47.35 21.24 47.35 47.35z" fill="#fc0"/></g><path d="m362.08 185h-212.15l28.08-80h155.98z" fill="#f4f4f7"/><path d="m421.76 355h-331.52l28.09-80h275.34z" fill="#f4f4f7"/><path d="m362.08 185h-106.08v-80h77.99z" fill="#e5eaee"/><path d="m421.76 355h-165.76v-80h137.67z" fill="#e5eaee"/><path d="m482 469.35v27.65c0 8.28-6.72 15-15 15h-211v-90h178.65c26.11 0 47.35 21.24 47.35 47.35z" fill="#ff8756"/></g></svg>