<svg id="Capa_1" enable-background="new 0 0 512 512" height="512" viewBox="0 0 512 512" width="512" xmlns="http://www.w3.org/2000/svg"><g><g><path d="m422.14 224.899-160.76 44.16c-5.353 1.47-10.866-.146-14.58-3.86-3.82-3.81-5.29-9.38-3.86-14.58l44.16-160.76c3.027-11.055 16.927-14.773 25.07-6.63l58.3 58.3 58.3 58.3c8.138 8.138 4.432 22.041-6.63 25.07z" fill="#766d78"/></g><path d="m428.77 199.829c8.138 8.138 4.432 22.041-6.63 25.07-172.789 47.464-161.766 44.7-164.73 44.7-3.93 0-7.76-1.55-10.61-4.4l123.67-123.67z" fill="#554e56"/><path d="m379.403 415.223h-183.297v96.776h183.297c7.075 0 12.81-5.735 12.81-12.81v-71.157c0-7.074-5.735-12.809-12.81-12.809z" fill="#ff8756"/><path d="m196.106 415.223h-183.296c-7.075 0-12.81 5.735-12.81 12.81v71.157c0 7.075 5.735 12.81 12.81 12.81h183.297v-96.777z" fill="#fc0"/><path d="m183.297 221.67h-170.487c-7.075 0-12.81 5.735-12.81 12.81v71.157c0 7.075 5.735 12.81 12.81 12.81h170.487c7.075 0 12.81-5.735 12.81-12.81v-71.157c-.001-7.075-5.736-12.81-12.81-12.81z" fill="#fc0"/><path d="m294.159 318.446h-183.296c-7.075 0-12.81 5.735-12.81 12.81v71.157c0 7.075 5.735 12.81 12.81 12.81h183.297v-96.777z" fill="#fff161"/><path d="m477.456 318.446h-183.297v96.776h183.297c7.075 0 12.81-5.735 12.81-12.81v-71.157c0-7.074-5.735-12.809-12.81-12.809z" fill="#fc0"/><g><path d="m339.983 183.294-13.813 2.535h-.01c-5.86-5.85-5.85-15.35.01-21.21l64.44-64.45c5.86-5.85 15.36-5.85 21.22 0v13.597z" fill="#e5eaee"/></g><path d="m411.83 121.389-64.46 64.45c-2.92 2.93-6.76 4.39-10.6 4.39s-7.67-1.47-10.6-4.4l85.66-85.66c5.85 5.86 5.85 15.36 0 21.22z" fill="#cfcfde"/><g><path d="m494.259 48.956-67.335 70.359-31.304-2.926-16.22-16.22c-2.81-2.81-4.39-6.62-4.39-10.6s1.58-7.8 4.39-10.61l74.57-74.57c5.85-5.85 15.35-5.85 21.21 0l16.22 16.22z" fill="#e58944"/></g><path d="m512 47.429c0 3.97-1.58 7.79-4.39 10.6l-74.57 74.57c-2.93 2.93-6.77 4.39-10.61 4.39s-7.68-1.46-10.6-4.39l-16.21-16.21 95.78-95.78 16.21 16.21c2.81 2.81 4.39 6.63 4.39 10.61z" fill="#ca671b"/></g></svg>